<svg id="Layer_1" data-name="Layer 1" xmlns="http://www.w3.org/2000/svg" viewBox="0 0 204.42 204.42">
  <defs>
    <style>
      .cls-1 {
        fill: #153cff;
      }

      .cls-2 {
        fill: #fff;
      }
    </style>
  </defs>
  <title>logo-polygon-circle-blue</title>
  <circle class="cls-1" cx="102.21" cy="102.21" r="102.21"/>
  <g id="crisp-studio-logo-b">
    <path class="cls-2" d="M163,109.2a1.09,1.09,0,0,0,.07-.3,1.13,1.13,0,0,0,0-.18.07.07,0,0,0,0,0,1.71,1.71,0,0,0,0-.32s0-.07,0-.11a2,2,0,0,0-.14-.47v0l-24-54.2a.43.43,0,0,0,0-.07,3.21,3.21,0,0,0-.19-.31l-.08-.1a2.13,2.13,0,0,0-.34-.33h0a1.86,1.86,0,0,0-.41-.23l-.12,0a1.9,1.9,0,0,0-.36-.09h-.07L78.45,46a0,0,0,0,0,0,0A1.55,1.55,0,0,0,78,46a.75.75,0,0,0-.16,0,1.34,1.34,0,0,0-.27.07l0,0a1.4,1.4,0,0,0-.17.09,1.35,1.35,0,0,0-.26.15.86.86,0,0,0-.14.13,1.45,1.45,0,0,0-.21.22l-.08.07L41.67,94.68h0a2,2,0,0,0-.21.37s0,0,0,0a.65.65,0,0,0,0,.13,1.3,1.3,0,0,0-.08.34.68.68,0,0,0,0,.14,1.61,1.61,0,0,0,0,.38.28.28,0,0,0,0,.09,1.78,1.78,0,0,0,.13.45,0,0,0,0,0,0,0l24,54.2s0,0,0,.08.12.2.19.3l.08.11a2.08,2.08,0,0,0,.34.32h0a1.59,1.59,0,0,0,.5.26l.19.05a2.44,2.44,0,0,0,.26.06L126,158.4h.22a2,2,0,0,0,.42,0l.12,0a1.72,1.72,0,0,0,.29-.11l.11-.05a1.73,1.73,0,0,0,.28-.19l.08,0,0,0a1.64,1.64,0,0,0,.28-.31h0l35-47.86a.73.73,0,0,0,0-.09,1.17,1.17,0,0,0,.15-.27A1.22,1.22,0,0,0,163,109.2Zm-37,44-9.41-10.7,35.68-25.26ZM64.55,103.84l55.78-26.45-8.23,61.19ZM64,99.7,79.39,51l39.14,22.83ZM108.63,141l-39.69,6.75L63.3,107.88Zm15.65-63,33.65,30.34-41.7,29.52Zm-2-6.66L87.34,51l46.17,5ZM59.42,100.75,46.37,95l26.26-36Zm-.59,4.11,4.42,31.21-16-36.31Zm54,39.47,8.4,9.54-39.48-4.25Zm12.62-70.6,11.25-15.4,18.77,42.47Z"/>
  </g>
</svg>
